<?xml version="1.0" encoding="UTF-8"?>
<svg id="_Слой_1" data-name="Слой 1" fill="#2c2c2c"  xmlns="http://www.w3.org/2000/svg" viewBox="0 0 1000 1000">
  <path d="M481.79,129.29c299.03-14.56,492.82,315.62,331.62,569.62-140.33,221.11-460.63,230.61-614.23,18.4C26.52,478.77,189.38,143.53,481.79,129.29ZM758.01,745c82.02-84.88,115.31-208.2,89.31-323.82-31.66-140.77-148.95-251.3-291.98-273.02-236.48-35.91-439.59,163.02-408.19,400.19,12.6,95.15,66.1,184.05,143.85,239.64.49-5.94-.64-12.69,0-18.51.4-3.65,2.47-6.71,2.92-10.08.9-6.76-.37-14.9.1-21.9.54-8.1,3.33-16.23,3.97-24.03,2.83-34.3-5.36-57.8,15.18-88.82,22.87-34.54,83.24-59.68,95.55-96.45,10.96-32.75-16.75-61.59-33.53-86.88-3.11-4.69-5.32-7.87-8.59-12.41-8.52-11.81-6.55-22.36-8.88-36.12-6.36-37.46-9.98-72.91-5.69-111.29,4.78-42.71,30.08-97.72,75.77-108.23,26.3-6.06,90.39-5.49,115.74,3.71,55.28,20.06,110.22,83.71,113.53,143.47,1.47,26.47-2.29,54.91-12.54,78.54-6.42,14.79-2.9,37.88-3.46,54.54-.9,26.84-3.9,69.23-28.73,85.27-3.61,2.33-6.84,3.08-10.05,4.96-.62.37-1.93.04-1.25,1.71.46,1.13,10.46,9.01,12.07,9.93,13.26,7.64,32.83,6.2,48.16,9.84,33.66,7.99,60.41,36.55,67.68,70.32,3.43,15.97,3.34,33.65,7.51,49.49,2.99,11.35,8.17,23,12.09,33.91,3.12,8.7,5.36,17.66,9.5,26.01ZM700.42,606.58c-6.8-8.78-15.52-17.09-25.88-21.62-11.3-4.94-27.08-7.44-39.03-8.97-17.71-2.27-36.9-9.07-48.04-23.96-3.75-5.02-3.95-8.28-.67-13.72,4.38-7.27,14.86-9.03,21.54-13.46,5.69-3.77,6.77-11.93,9.16-17.84,9.32-23.07,7.01-35.27,8.51-59.49.48-7.76,2.62-16.63,3.02-23.97.5-9.14-2.34-16.58.63-26.38,1.1-3.63,5.34-9.09,6.12-12.88,5.77-28.29,10.77-56.88,2.69-85.25-17.56-61.68-71.6-114.81-137.98-119.02-22.69-1.44-64.43-1.63-83.43,10.55-31.5,20.2-46.06,51.92-49.96,88.04-3.29,30.44-3.53,74.67,2.13,104.67.62,3.27,3.17,5.69,3.69,9.31.98,6.84-1.28,15.27,1.11,21.89,1.44,4,5.34,6.48,7.41,9.59,4.82,7.26,8.76,15.21,13.56,22.44,17.84,26.87,36.25,44.32,28.73,80.73-1.47,7.12-15.05,31.68-20.19,36.81-3,2.99-8.74,5.13-12.55,8.45-5.4,4.71-9.75,11.12-15.49,15.51-14.31,10.94-31.39,20.15-43.5,34.5-30.93,36.67-14.75,84.76-24.99,128.01l-1.56,47.48c129.28,85.88,303.21,75.01,422.03-24.02,2.63-2.19,19.02-16.23,19.37-17.68.82-3.41-2.66-5.75-3.62-8.03-11.21-26.62-19.69-53.62-24.98-82.02-3.95-21.19-4.03-41.83-17.83-59.67Z"/>
</svg>